<svg width="32" height="32" xmlns="http://www.w3.org/2000/svg">

 <g>
  <title>background</title>
  <rect fill="none" id="canvas_background" height="402" width="582" y="-1" x="-1"/>
 </g>
 <g>
  <title>Layer 1</title>
  <path fill="#e86b58" id="svg_2" d="m26,27c-1.7,0 -3,-1.3 -3,-3s1.3,-3 3,-3s3,1.3 3,3s-1.3,3 -3,3z"/>
  <path fill="#e86b58" id="svg_4" d="m10,27c-1.7,0 -3,-1.3 -3,-3s1.3,-3 3,-3s3,1.3 3,3s-1.3,3 -3,3z"/>
  <path fill="#f2674d" id="svg_5" d="m31.8,17.4l-4,-5c-0.2,-0.3 -0.5,-0.4 -0.8,-0.4l-5,0l0,-3c0,-0.6 -0.4,-1 -1,-1l-16,0c-0.6,0 -1,0.4 -1,1l0,1l1,0c0.6,0 1,0.4 1,1s-0.4,1 -1,1l-1,0l-1,0c-0.6,0 -1,0.4 -1,1s0.4,1 1,1l1,0l2,0c0.6,0 1,0.4 1,1s-0.4,1 -1,1l-2,0l-3,0c-0.6,0 -1,0.4 -1,1s0.4,1 1,1l3,0l0,6c0,0.6 0.4,1 1,1l0.1,0c-0.1,-0.3 -0.1,-0.7 -0.1,-1c0,-2.8 2.2,-5 5,-5s5,2.2 5,5c0,0.3 0,0.7 -0.1,1l6.1,0l0.1,0c-0.1,-0.3 -0.1,-0.7 -0.1,-1c0,-2.8 2.2,-5 5,-5s5,2.2 5,5c0,0.3 0,0.7 -0.1,1l0.1,0c0.6,0 1,-0.4 1,-1l0,-6c0,-0.2 -0.1,-0.4 -0.2,-0.6z"/>
 </g>
</svg>