<svg width="128" height="128" xmlns="http://www.w3.org/2000/svg">

 <title/>
 <g>
  <title>background</title>
  <rect fill="none" id="canvas_background" height="402" width="582" y="-1" x="-1"/>
 </g>
 <g>
  <title>Layer 1</title>
  <rect fill="#f2674d" id="svg_1" y="16" x="25.5" width="77" ry="6" rx="6" height="96" class="cls-1"/>
  <path fill="#dd6966" id="svg_2" d="m27.24,23.74a6,6 0 0 1 6,-6c70.87,0 66.16,-0.4 68.28,1a6,6 0 0 0 -5,-2.72l-65,0a6,6 0 0 0 -6,6l0,84a6,6 0 0 0 2.72,5c-1.42,-2.13 -1,3.2 -1,-87.28z" class="cls-2"/>
  <path fill="#ba3b38" id="svg_3" d="m95.94,16a6,6 0 0 1 0.55,2.5l0,84a6,6 0 0 1 -6,6l-45.05,0a2.38,2.38 0 0 1 -2.37,-2.27l-2,-45.4l0,47.67l-15.07,0a6,6 0 0 0 5.5,3.5l65,0a6,6 0 0 0 6,-6l0,-84c0,-3 -2.19,-6 -6.56,-6z" class="cls-3"/>
  <path fill="#333333" id="svg_4" d="m31.5,16l9.55,0a0,0 0 0 1 0,0l0,96a0,0 0 0 1 0,0l-9.55,0a6,6 0 0 1 -6,-6l0,-84a6,6 0 0 1 6,-6z" class="cls-4"/>
  <path fill="#4d4d4d" id="svg_5" d="m28.22,111c-1.4,-2.14 -1,3.2 -1,-87.28a6,6 0 0 1 6,-6l7.81,0l0,-1.72l-9.53,0a6,6 0 0 0 -6,6l0,84a6,6 0 0 0 2.72,5z" class="cls-5"/>
  <path fill="#1f1f1f" id="svg_6" d="m26,108.5l0,0a6,6 0 0 0 5.5,3.5l9.55,0l0,-7c-1.32,4.4 -0.13,3.5 -15.05,3.5z" class="cls-6"/>
  <path fill="#ba3b38" id="svg_7" d="m53.53,53l0,-16.29a3.73,3.73 0 0 1 3.73,-3.71l28.43,0a3.73,3.73 0 0 1 3.73,3.73l0,16.27a3.73,3.73 0 0 1 -3.73,3.73l-28.43,0a3.73,3.73 0 0 1 -3.73,-3.73zm33.21,32.53l-30.53,0a2,2 0 0 0 0,4l30.53,0a2,2 0 0 0 0,-4zm-2.51,9.18l-25.52,0a2,2 0 0 0 0,4l25.52,0a2,2 0 0 0 0,-4z" class="cls-3"/>
  <rect fill="#f2f2f2" id="svg_8" y="32" x="52.55" width="35.9" ry="3.73" rx="3.73" height="23.74" class="cls-7"/>
  <path fill="#f2f2f2" id="svg_9" d="m85.77,88.56l-30.54,0a2,2 0 0 1 0,-4l30.54,0a2,2 0 0 1 0,4z" class="cls-7"/>
  <path fill="#f2f2f2" id="svg_10" d="m83.26,97.73l-25.52,0a2,2 0 0 1 0,-4l25.52,0a2,2 0 0 1 0,4z" class="cls-7"/>
 </g>
</svg>