<svg width="128" height="128" xmlns="http://www.w3.org/2000/svg">

 <g>
  <title>background</title>
  <rect fill="none" id="canvas_background" height="402" width="582" y="-1" x="-1"/>
 </g>
 <g>
  <title fill="#f2674d">Layer 1</title>
  <path fill="#f2674d" id="svg_2" d="m89.441,33.805l-50.851,0c-1.968,0 -3.568,-1.6 -3.568,-3.565l0,-16.234l57.986,0l0,16.234c0,1.966 -1.6,3.565 -3.567,3.565zm-50.42,-4l49.986,0l0,-11.799l-49.986,0l0,11.799z"/>
  <path fill="#f2674d" id="svg_4" d="m64.164,99.415l-1.965,-4.259c-0.075,-0.163 -7.718,-16.506 -24.341,-33.128l-1.124,-1.124l0.841,-1.349c10.597,-16.994 10.608,-27.155 10.607,-27.256l4,-0.074c0.009,0.441 0.097,10.766 -10.384,28.098c11.877,12.141 19.003,23.753 22.142,29.479c2.847,-5.479 9.438,-16.377 22.238,-29.427c-10.32,-15.537 -11.021,-27.945 -11.046,-28.481l3.996,-0.193c0.006,0.125 0.76,12.609 11.272,27.772l0.952,1.373l-1.182,1.181c-18.439,18.44 -24.237,32.878 -24.294,33.022l-1.712,4.366z"/>
  <rect fill="#f2674d" id="svg_5" y="62.616" x="62.016" width="4" height="32.331"/>
  <path fill="#f2674d" id="svg_6" d="m64.014,65.061c-5.267,0 -9.551,-4.285 -9.551,-9.551c0,-5.267 4.284,-9.551 9.551,-9.551c5.268,0 9.553,4.285 9.553,9.551c-0.001,5.265 -4.286,9.551 -9.553,9.551zm0,-15.103c-3.061,0 -5.551,2.49 -5.551,5.551c0,3.061 2.49,5.551 5.551,5.551c3.062,0 5.553,-2.49 5.553,-5.551c-0.001,-3.061 -2.492,-5.551 -5.553,-5.551z"/>
  <path fill="#f2674d" id="svg_7" d="m94.752,105.4l-61.474,0c-1.104,0 -2,-0.896 -2,-2s0.896,-2 2,-2l61.474,0c1.104,0 2,0.896 2,2s-0.896,2 -2,2z"/>
  <path fill="#f2674d" id="svg_9" d="m35.278,113.932l-21.262,0l0,-20.555l21.263,0l0,20.555l-0.001,0zm-17.262,-4l13.263,0l0,-12.555l-13.263,0l0,12.555z"/>
  <path fill="#f2674d" id="svg_10" d="m114.015,113.678l-21.263,0l0,-20.555l21.263,0l0,20.555zm-17.263,-4l13.263,0l0,-12.555l-13.263,0l0,12.555z"/>
  <rect id="svg_11" height="12.170001" width="51" y="17.266303" x="38.407208" stroke-width="1.5" stroke="#f2674d" fill="#f2674d"/>
 </g>
</svg>